<?xml version="1.0" encoding="utf-8"?>
<!-- Generator: Adobe Illustrator 24.0.1, SVG Export Plug-In . SVG Version: 6.00 Build 0)  -->
<svg version="1.1" id="PRINT" xmlns="http://www.w3.org/2000/svg" xmlns:xlink="http://www.w3.org/1999/xlink" x="0px" y="0px"
	 viewBox="0 0 841.89 595.28" style="enable-background:new 0 0 841.89 595.28;" xml:space="preserve">
<style type="text/css">
	.st0{clip-path:url(#SVGID_2_);fill-rule:evenodd;clip-rule:evenodd;fill:#FFFFFF;}
	.st1{display:none;opacity:0.5;clip-path:url(#SVGID_2_);}
	.st2{display:inline;fill:#ECA9B1;}
	.st3{clip-path:url(#SVGID_2_);}
	.st4{fill:#72C3C5;}
	.st5{fill:#ECA9B1;}
	.st6{fill:#D05C7D;}
	.st7{opacity:0.75;}
	.st8{fill:#4D1083;}
	.st9{opacity:0.75;fill:#72C3C5;}
	.st10{fill:#F64B60;}
	.st11{fill:#000039;}
	.st12{display:none;clip-path:url(#SVGID_2_);}
	.st13{display:inline;}
	.st14{font-family:'JosefinSans-Bold';}
	.st15{font-size:38px;}
	.st16{letter-spacing:3;}
	.st17{font-family:'JosefinSans-Regular';}
	.st18{font-size:23px;}
	.st19{letter-spacing:2;}
	.st20{display:inline;fill:#000039;}
	.st21{font-family:'Montserrat-Medium';}
	.st22{font-size:12px;}
	.st23{letter-spacing:1.85;}
	.st24{display:inline;fill:#4D1083;}
	.st25{font-size:33px;}
	.st26{display:inline;fill:#72C3C5;}
	.st27{font-family:'Montserrat-SemiBold';}
	.st28{font-size:30.3692px;}
	.st29{font-family:'Montserrat-Regular';}
	.st30{font-size:14px;}
	.st31{font-family:'JosefinSans-SemiBold';}
	.st32{font-family:'JosefinSans-Light';}
	.st33{font-size:13px;}
	.st34{letter-spacing:1;}
	.st35{font-size:27px;}
</style>
<g>
	<defs>
		<rect id="SVGID_1_" x="-14.17" y="-14.17" width="870.24" height="623.62"/>
	</defs>
	<clipPath id="SVGID_2_">
		<use xlink:href="#SVGID_1_"  style="overflow:visible;"/>
	</clipPath>
	<rect x="-14.17" y="-14.17" class="st0" width="870.24" height="623.62"/>
	<g class="st1">
		<path class="st2" d="M169.57,692.13c-3.51,0-6.36,2.85-6.36,6.36c0,3.51,2.85,6.36,6.36,6.36c3.51,0,6.36-2.85,6.36-6.36
			C175.93,694.98,173.08,692.13,169.57,692.13z"/>
		<path class="st2" d="M275.94,692.13c-3.51,0-6.36,2.85-6.36,6.36c0,3.51,2.85,6.36,6.36,6.36c3.51,0,6.36-2.85,6.36-6.36
			C282.29,694.98,279.45,692.13,275.94,692.13z"/>
		<path class="st2" d="M354,550.96c-2.92-11.27-10.69-37.47-25.38-63.42c-25.81-45.58-61.12-69.7-102.13-69.75c0,0,0,0,0,0
			c-0.84,0-1.56,0.46-1.95,1.14c-0.1-0.02-0.21-0.03-0.32-0.03c-0.01,0-0.01,0-0.02,0c0,0-0.01,0-0.01,0c0,0,0,0,0,0
			c-41,0.05-76.32,24.17-102.13,69.75c-14.25,25.16-21.98,50.55-25.1,62.35c-5.94,0.5-10.61,5.48-10.61,11.55
			c0,6.41,5.19,11.6,11.6,11.6s11.6-5.19,11.6-11.6c0-5.18-3.39-9.56-8.07-11.05c3.16-11.81,10.76-36.39,24.55-60.73
			c24.58-43.37,56.45-65.99,94.74-67.31l-65.07,154.88c-0.27,0.63-0.23,1.36,0.1,1.96l24.76,44.88h-4.5c-4.31,0-7.84,3.53-7.84,7.84
			c0,4.31,3.53,7.84,7.84,7.84h5.76v56.32h81.61v-56.32h6.68c4.31,0,7.84-3.53,7.84-7.84c0-4.31-3.53-7.84-7.84-7.84h-5.35
			l25.61-46.76c0.33-0.6,0.37-1.31,0.11-1.94l-63.4-154.18c39.54,0.29,72.35,22.94,97.53,67.36c14.33,25.29,21.98,50.84,24.9,62.05
			c-4.36,1.67-7.45,5.88-7.45,10.82c0,6.41,5.19,11.6,11.6,11.6c6.41,0,11.6-5.19,11.6-11.6C365.3,556.24,360.26,551.12,354,550.96z
			 M223.17,524.59c-5.1,0-9.24-4.15-9.24-9.24c0-5.1,4.15-9.24,9.24-9.24s9.24,4.15,9.24,9.24
			C232.41,520.45,228.27,524.59,223.17,524.59z M259.65,625.18h-33.77v-95.1c0-0.44-0.13-0.85-0.35-1.2
			c6.46-1.12,11.39-6.75,11.39-13.53c0-7.58-6.17-13.75-13.75-13.75c-7.58,0-13.75,6.17-13.75,13.75c0,7.07,5.36,12.9,12.23,13.66
			c-0.17,0.32-0.28,0.68-0.28,1.07v95.1h-35.65l-25.44-46.1l63.89-152.07l61.76,150.19L259.65,625.18z"/>
	</g>
	<g class="st3">
		<g>
			<g>
				<path class="st4" d="M98.45,26.45c24.72,32.13,60.95,54.36,101.1,59.94c20.71,2.88,42.4,2.47,61.76-5.41
					c30.3-12.33,52.27-41.71,83.99-49.72c15.11-3.82,30.96-2.35,46.54-1.89c15.58,0.46,31.89-0.32,45.45-7.99
					c13.56-7.67,24.09-24.42,18.57-38.99c-17.25-45.51-69.64-88.02-165.24-57c-95.59,31.02-63.12-15.2-140.4-10.6
					C72.94-80.63,83.42,6.91,98.45,26.45z"/>
			</g>
			<g>
				<path class="st5" d="M210.03-14.6c5.13,34.87,10.09,72.39-6.82,103.32c-14.02,25.65-40.63,43.01-69.05,49.84
					c-28.42,6.83-58.49,3.94-86.68-3.78c-10.33-2.83-20.87-6.34-31.5-5.04c-17.17,2.09-30.1,15.84-43.61,26.64
					s-30.98,15.12-47.46,9.88c-74.56-23.73-132.51-204.11-35.75-236.28s135.08,33.32,195.2,4.6
					C144.48-94.15,205.12-47.97,210.03-14.6z"/>
			</g>
			<g>
				<path class="st6" d="M283.41,28.34c-6.75,13.34-21.48,21.68-36.23,24.14c-16.96,2.83-34.03-2.66-50.74-6.7
					c-16.71-4.04-35.25-6.46-50.34,1.77c-9.57,5.22-16.54,14.11-25.16,20.79C107.41,78.82,90.16,83.51,73.1,84.77
					C41.8,87.07,7.93,80.65-15.87,60.2C-81.86,3.51-87.04-96.45,0-106.79s144.48,0,193.89-24.13
					C243.29-155.05,327.93-59.69,283.41,28.34z"/>
			</g>
		</g>
	</g>
	<g class="st3">
		<g class="st7">
			<path class="st4" d="M790.24,658.71l-3.23-66.5c-5.78-16.22-19.53-29.16-35.77-34.91c-16.23-5.75-34.62-4.51-50.39,2.41
				c-14.9,6.54-27.63,17.88-43.28,22.34c-16.85,4.8-34.98,0.98-51.39-5.14c-16.41-6.12-31.98-14.53-48.82-19.34
				c-33.25-9.5-70.53-3.79-99.42,15.21c-28.89,19-51.62,50.73-53.33,85.27c-2.56,51.82,36.5,156.37,147.95,117.3
				c111.45-39.06,126.38-52.85,174.64-44.81C775.46,738.6,792.1,697.17,790.24,658.71z"/>
		</g>
		<path class="st6" d="M835.35,434.12c-14.76,8.63-25.3,24.11-27.92,41c-3.39,21.87,5.51,46.19-5.55,65.36
			c-8.26,14.32-25.44,21.01-41.8,23.36c-12.63,1.81-25.55,1.68-37.98,4.58c-12.43,2.89-24.84,9.52-30.58,20.92
			c-6.63,13.16-3.2,30.13-11.43,42.36c-5.93,8.81-17.81,15.71-16.15,26.2c1.13,7.15,8.34,11.51,15,14.35
			c44.33,18.94,95.49,13.9,141.72,0.24c23.5-6.95,47.23-16.58,63.83-34.61c21.09-22.91,27.39-55.59,30.07-86.61
			c2.6-30.01,2.65-60.24,0.15-90.26c-1.35-16.27-5.93-36.85-25.01-38.79C874.67,420.7,847.92,426.77,835.35,434.12z"/>
	</g>
	<g class="st3">
		<g>
			<path class="st8" d="M112.29,124.87c-7.74,0-14.04-6.3-14.04-14.04s6.3-14.04,14.04-14.04c7.74,0,14.04,6.3,14.04,14.04
				S120.04,124.87,112.29,124.87z M112.29,102.13c-4.8,0-8.7,3.9-8.7,8.7c0,4.8,3.9,8.7,8.7,8.7c4.79,0,8.7-3.9,8.7-8.7
				C120.99,106.03,117.09,102.13,112.29,102.13z"/>
		</g>
		<g>
			<path class="st4" d="M431.87,60.66c-7.74,0-14.04-6.3-14.04-14.04s6.3-14.04,14.04-14.04c7.74,0,14.04,6.3,14.04,14.04
				S439.61,60.66,431.87,60.66z M431.87,37.92c-4.8,0-8.7,3.9-8.7,8.7s3.9,8.7,8.7,8.7c4.79,0,8.7-3.9,8.7-8.7
				S436.66,37.92,431.87,37.92z"/>
		</g>
		<g>
			<path class="st6" d="M60.05,114.18c-4.8,0-8.7-3.9-8.7-8.7c0-4.8,3.9-8.7,8.7-8.7c4.8,0,8.7,3.9,8.7,8.7
				C68.75,110.28,64.85,114.18,60.05,114.18z M60.05,100.1c-2.97,0-5.39,2.42-5.39,5.39s2.42,5.39,5.39,5.39
				c2.97,0,5.39-2.42,5.39-5.39S63.02,100.1,60.05,100.1z"/>
		</g>
		<g>
			<path class="st9" d="M35.82,186.35c-7.74,0-14.04-6.3-14.04-14.04s6.3-14.04,14.04-14.04c7.74,0,14.04,6.3,14.04,14.04
				S43.57,186.35,35.82,186.35z M35.82,163.61c-4.8,0-8.7,3.9-8.7,8.7c0,4.8,3.9,8.7,8.7,8.7c4.79,0,8.7-3.9,8.7-8.7
				C44.52,167.51,40.62,163.61,35.82,163.61z"/>
		</g>
		<g>
			<path class="st8" d="M140.86,195.05c-4.8,0-8.7-3.9-8.7-8.7c0-4.8,3.9-8.7,8.7-8.7c4.8,0,8.7,3.9,8.7,8.7
				C149.56,191.15,145.66,195.05,140.86,195.05z M140.86,180.96c-2.97,0-5.39,2.42-5.39,5.39c0,2.97,2.42,5.39,5.39,5.39
				c2.97,0,5.39-2.42,5.39-5.39C146.25,183.38,143.83,180.96,140.86,180.96z"/>
		</g>
		<path class="st10" d="M-19.21,181c0,3.85-3.12,6.97-6.97,6.97c-3.85,0-6.97-3.12-6.97-6.97c0-3.85,3.12-6.97,6.97-6.97
			C-22.33,174.04-19.21,177.16-19.21,181z"/>
		<path class="st10" d="M386.3,49.68c0,2.39-1.94,4.32-4.32,4.32c-2.39,0-4.32-1.94-4.32-4.32c0-2.39,1.94-4.32,4.32-4.32
			C384.36,45.36,386.3,47.29,386.3,49.68z"/>
		
			<ellipse transform="matrix(0.1651 -0.9863 0.9863 0.1651 74.6955 318.2697)" class="st6" cx="225.34" cy="115.01" rx="6.96" ry="6.96"/>
		<g>
			<g>
				<g>
					<path class="st11" d="M81.85,214.1c-0.28,0-0.5-0.22-0.5-0.5v-11c0-0.28,0.22-0.5,0.5-0.5c0.28,0,0.5,0.22,0.5,0.5v11
						C82.35,213.88,82.12,214.1,81.85,214.1z"/>
				</g>
				<g>
					<path class="st11" d="M87.35,208.6h-11c-0.28,0-0.5-0.22-0.5-0.5c0-0.28,0.22-0.5,0.5-0.5h11c0.28,0,0.5,0.22,0.5,0.5
						C87.85,208.38,87.62,208.6,87.35,208.6z"/>
				</g>
			</g>
		</g>
		<g>
			<g>
				<g>
					
						<rect x="290.28" y="39.59" transform="matrix(0.7282 -0.6854 0.6854 0.7282 50.6294 212.3423)" class="st11" width="5.5" height="5.5"/>
				</g>
				<g>
					<path class="st11" d="M280.29,54.33c-0.19-0.2-0.18-0.52,0.02-0.71l25.24-23.76c0.2-0.19,0.52-0.18,0.71,0.02
						c0.19,0.2,0.18,0.52-0.02,0.71L281,54.35C280.8,54.54,280.48,54.53,280.29,54.33z"/>
				</g>
				<g>
					
						<rect x="302.68" y="29.37" transform="matrix(0.7282 -0.6854 0.6854 0.7282 61.31 217.3447)" class="st11" width="4" height="4"/>
					<path class="st11" d="M304.58,34.91l-3.43-3.64l3.64-3.43l3.43,3.64L304.58,34.91z M302.56,31.31l2.06,2.18l2.18-2.06
						l-2.06-2.18L302.56,31.31z"/>
				</g>
				<g>
					
						<rect x="279.26" y="51.42" transform="matrix(0.7282 -0.6854 0.6854 0.7282 39.8342 207.283)" class="st11" width="4" height="4"/>
					<path class="st11" d="M281.15,56.95l-3.43-3.64l3.64-3.43l3.43,3.64L281.15,56.95z M279.14,53.35l2.06,2.18l2.18-2.06
						l-2.06-2.18L279.14,53.35z"/>
				</g>
			</g>
		</g>
	</g>
	<g class="st3">
		<g>
			<g>
				<path class="st11" d="M802.86,49.94c-5.79,0-10.5-4.71-10.5-10.5c0-5.79,4.71-10.5,10.5-10.5c5.79,0,10.5,4.71,10.5,10.5
					C813.36,45.23,808.65,49.94,802.86,49.94z M802.86,29.94c-5.24,0-9.5,4.26-9.5,9.5s4.26,9.5,9.5,9.5c5.24,0,9.5-4.26,9.5-9.5
					S808.1,29.94,802.86,29.94z"/>
			</g>
			<g>
				<path class="st11" d="M802.86,57.39c-0.28,0-0.5-0.22-0.5-0.5v-34.9c0-0.28,0.22-0.5,0.5-0.5c0.28,0,0.5,0.22,0.5,0.5v34.9
					C803.36,57.17,803.14,57.39,802.86,57.39z"/>
			</g>
			<g>
				<path class="st11" d="M820.31,39.94h-34.9c-0.28,0-0.5-0.22-0.5-0.5c0-0.28,0.22-0.5,0.5-0.5h34.9c0.28,0,0.5,0.22,0.5,0.5
					C820.81,39.72,820.58,39.94,820.31,39.94z"/>
			</g>
		</g>
	</g>
	<g class="st3">
		<g>
			<g>
				<path class="st11" d="M38.65,569.31c-5.79,0-10.5-4.71-10.5-10.5c0-5.79,4.71-10.5,10.5-10.5s10.5,4.71,10.5,10.5
					C49.15,564.6,44.44,569.31,38.65,569.31z M38.65,549.31c-5.24,0-9.5,4.26-9.5,9.5s4.26,9.5,9.5,9.5s9.5-4.26,9.5-9.5
					S43.89,549.31,38.65,549.31z"/>
			</g>
			<g>
				<path class="st11" d="M38.65,576.76c-0.28,0-0.5-0.22-0.5-0.5v-34.9c0-0.28,0.22-0.5,0.5-0.5s0.5,0.22,0.5,0.5v34.9
					C39.15,576.53,38.93,576.76,38.65,576.76z"/>
			</g>
			<g>
				<path class="st11" d="M56.1,559.31h-34.9c-0.28,0-0.5-0.22-0.5-0.5c0-0.28,0.22-0.5,0.5-0.5h34.9c0.28,0,0.5,0.22,0.5,0.5
					C56.6,559.09,56.38,559.31,56.1,559.31z"/>
			</g>
		</g>
	</g>
	<g class="st12">
		<g class="st13">
			<g>
				<g>
					<g>
						<g>
							<text transform="matrix(1 0 0 1 299.8352 121.5382)" class="st11 st14 st15 st16">CERTIFICATE</text>
						</g>
					</g>
				</g>
			</g>
			<g>
				<g>
					<g>
						<g>
							<text transform="matrix(1 0 0 1 318.3604 147.123)" class="st11 st17 st18 st19">OF ACHIEVEMENT</text>
						</g>
					</g>
				</g>
			</g>
		</g>
		<text transform="matrix(1.0813 0 0 1 212.3057 199.928)" class="st20 st21 st22 st23">This certificate is proudly presented to</text>
		<text transform="matrix(1 0 0 1 233.3571 272.6437)" class="st24 st14 st25 st16">Anthony Jonson Miller</text>
		<text transform="matrix(1 0 0 1 206.1322 374.124)" class="st26 st27 st28 st16">Graphic Design Level II</text>
		<text transform="matrix(1 0 0 1 93.8247 317.4102)" class="st20 st29 st30 st19">For the successful completion with distinction of the online course</text>
		<g class="st13">
			<rect x="161.58" y="280.9" class="st4" width="518.73" height="1"/>
		</g>
	</g>
	<g class="st12">
		<g class="st13">
			<text transform="matrix(1 0 0 1 541.1555 523.7658)" class="st11 st31 st30 st19">JULIE S. SMITH</text>
			<text transform="matrix(1 0 0 1 542.949 539.5497)" class="st11 st32 st33 st34">Design Teacher</text>
		</g>
		<g class="st13">
			<g>
				<path class="st11" d="M559.63,488.09c-6.93-0.17-14.05-2.3-18.63-7.01l-1.95,1.35l-0.36-0.52l1.87-1.3
					c-1.35-1.49-2.46-3.23-3.24-5.23c-3.05-7.8,0.38-16.03,2.7-20.24c9-16.38,28.88-25.81,47.27-22.42
					c1.66,0.31,3.34,0.77,4.39,2.08c1.42,1.77,0.95,4.28,0.54,5.62c-1.84,6.04-7.16,10.12-12.92,14.12l-0.54,0.37
					c2.97,1.18,5.37,2.93,6.96,5.12c2.79,3.84,3.11,9.26,1.17,14.09c4.74,0.34,9.56,0.17,14.14-1.23c7.53-2.3,15.14-9.4,14.4-18.02
					l-0.02-0.22c-0.09-1.02-0.19-2.18,0.53-3.01c0.77-0.89,2.04-0.91,3.29-0.79c17.18,1.57,34.54,3.68,51.6,6.3l-0.1,0.62
					c-17.05-2.61-34.4-4.73-51.57-6.29c-1.09-0.1-2.17-0.1-2.76,0.58c-0.55,0.63-0.46,1.6-0.38,2.54l0.02,0.22
					c0.76,8.96-7.08,16.31-14.85,18.68c-4.74,1.45-9.72,1.61-14.59,1.24c-0.69,1.54-1.61,3.01-2.76,4.34
					c-4.96,5.71-12.55,7.86-18.04,8.67C563.83,488.02,561.74,488.15,559.63,488.09z M541.53,480.72c5.83,5.92,15.85,7.6,24.2,6.38
					c5.39-0.79,12.83-2.89,17.66-8.46c1.06-1.22,1.92-2.57,2.57-3.98c-3.45-0.29-6.83-0.83-10.05-1.33
					c-3.6-0.57-7.69-1.22-11.01-3.36c-1.21-0.78-2.38-1.88-3.28-3.19L541.53,480.72z M580.75,432.68
					c-16.15-0.4-32.34,8.52-40.18,22.77c-2.26,4.12-5.62,12.15-2.66,19.71c0.76,1.95,1.85,3.65,3.18,5.1l20.19-14
					c-1.14-1.86-1.71-4.07-1.14-6.32c1.36-5.36,8.37-7.4,14.36-6.26c1.25,0.24,2.43,0.56,3.55,0.95l0.9-0.62
					c5.66-3.93,10.9-7.94,12.68-13.78c0.37-1.22,0.81-3.5-0.43-5.04c-0.91-1.14-2.47-1.56-4.01-1.85
					C585.05,432.95,582.9,432.73,580.75,432.68z M562.13,466.44c0.85,1.23,1.96,2.28,3.11,3.01c3.21,2.07,7.23,2.71,10.77,3.27
					c3.27,0.52,6.72,1.06,10.22,1.35c1.94-4.67,1.67-9.95-1.03-13.67c-1.58-2.18-4.03-3.92-7.07-5.05L562.13,466.44z M571.63,454.01
					c-4.93-0.12-9.82,1.87-10.89,6.09c-0.52,2.06,0,4.09,1.05,5.8l15.61-10.82c-0.96-0.32-1.97-0.58-3.02-0.78
					C573.48,454.13,572.55,454.04,571.63,454.01z"/>
			</g>
			<g>
				<path class="st11" d="M634.5,483.2c-1.69-0.04-3.26-0.68-4.27-1.82c-2.23-2.53-1.36-6.28-0.22-9.62l4.4-12.83
					c-1.01-0.48-2.42,0.96-2.7,1.27l-14.61,15.98c-0.06,0.06-0.14,0.1-0.22,0.1c-0.49,0.01-0.91-0.16-1.26-0.52
					c-0.73-0.75-0.93-2.16-0.88-3.22c0.29-5.52,0.93-11.06,1.9-16.51c-3.47,3.24-5.35,7.63-7.34,12.25
					c-1.37,3.18-2.78,6.47-4.75,9.33c-1.02,1.47-3.13,3.89-5.74,3.45c-1.91-0.32-3.2-2.1-3.63-3.73c-0.44-1.66-0.25-3.35,0.02-5.23
					c0.96-6.74,2.14-12.26,4.79-17.25l0.55,0.29c-2.61,4.91-3.77,10.36-4.72,17.04c-0.26,1.81-0.44,3.43-0.03,4.98
					c0.38,1.43,1.49,2.99,3.12,3.27c2.28,0.38,4.19-1.83,5.12-3.18c1.94-2.8,3.34-6.06,4.69-9.22c2.05-4.77,4.17-9.7,8.19-13.08
					c0.1-0.09,0.25-0.1,0.36-0.03c0.11,0.07,0.18,0.2,0.15,0.33c-1.06,5.7-1.75,11.53-2.06,17.32c-0.05,0.89,0.11,2.14,0.7,2.75
					c0.19,0.2,0.41,0.3,0.66,0.32l14.51-15.87c1.38-1.51,2.78-1.96,3.74-1.23c0.11,0.08,0.15,0.22,0.11,0.35l-4.48,13.06
					c-1.08,3.16-1.92,6.71,0.1,9c1.6,1.82,4.4,1.89,6.32,1.19c2.27-0.83,4.06-2.63,5.51-4.27l0.47,0.42
					c-1.5,1.71-3.36,3.57-5.77,4.45C636.33,483.07,635.4,483.22,634.5,483.2z"/>
			</g>
		</g>
		<g class="st13">
			<g>
				<g>
					<path class="st11" d="M679.08,499.74h-2c-0.28,0-0.5-0.22-0.5-0.5s0.22-0.5,0.5-0.5h1.5v-1.5c0-0.28,0.22-0.5,0.5-0.5
						c0.28,0,0.5,0.22,0.5,0.5v2C679.58,499.51,679.36,499.74,679.08,499.74z"/>
				</g>
				<g>
					<path class="st11" d="M673,499.74h-4.08c-0.28,0-0.5-0.22-0.5-0.5s0.22-0.5,0.5-0.5H673c0.28,0,0.5,0.22,0.5,0.5
						S673.27,499.74,673,499.74z M664.83,499.74h-4.08c-0.28,0-0.5-0.22-0.5-0.5s0.22-0.5,0.5-0.5h4.08c0.28,0,0.5,0.22,0.5,0.5
						S665.1,499.74,664.83,499.74z M656.66,499.74h-4.09c-0.28,0-0.5-0.22-0.5-0.5s0.22-0.5,0.5-0.5h4.09c0.28,0,0.5,0.22,0.5,0.5
						S656.94,499.74,656.66,499.74z M648.49,499.74h-4.08c-0.28,0-0.5-0.22-0.5-0.5s0.22-0.5,0.5-0.5h4.08c0.28,0,0.5,0.22,0.5,0.5
						S648.77,499.74,648.49,499.74z M640.32,499.74h-4.08c-0.28,0-0.5-0.22-0.5-0.5s0.22-0.5,0.5-0.5h4.08c0.28,0,0.5,0.22,0.5,0.5
						S640.6,499.74,640.32,499.74z M632.15,499.74h-4.08c-0.28,0-0.5-0.22-0.5-0.5s0.22-0.5,0.5-0.5h4.08c0.28,0,0.5,0.22,0.5,0.5
						S632.43,499.74,632.15,499.74z M623.99,499.74h-4.08c-0.28,0-0.5-0.22-0.5-0.5s0.22-0.5,0.5-0.5h4.08c0.28,0,0.5,0.22,0.5,0.5
						S624.26,499.74,623.99,499.74z M615.82,499.74h-4.08c-0.28,0-0.5-0.22-0.5-0.5s0.22-0.5,0.5-0.5h4.08c0.28,0,0.5,0.22,0.5,0.5
						S616.09,499.74,615.82,499.74z M607.65,499.74h-4.08c-0.28,0-0.5-0.22-0.5-0.5s0.22-0.5,0.5-0.5h4.08c0.28,0,0.5,0.22,0.5,0.5
						S607.92,499.74,607.65,499.74z M599.48,499.74h-4.08c-0.28,0-0.5-0.22-0.5-0.5s0.22-0.5,0.5-0.5h4.08c0.28,0,0.5,0.22,0.5,0.5
						S599.76,499.74,599.48,499.74z M591.31,499.74h-4.08c-0.28,0-0.5-0.22-0.5-0.5s0.22-0.5,0.5-0.5h4.08c0.28,0,0.5,0.22,0.5,0.5
						S591.59,499.74,591.31,499.74z M583.14,499.74h-4.08c-0.28,0-0.5-0.22-0.5-0.5s0.22-0.5,0.5-0.5h4.08c0.28,0,0.5,0.22,0.5,0.5
						S583.42,499.74,583.14,499.74z M574.97,499.74h-4.08c-0.28,0-0.5-0.22-0.5-0.5s0.22-0.5,0.5-0.5h4.08c0.28,0,0.5,0.22,0.5,0.5
						S575.25,499.74,574.97,499.74z M566.8,499.74h-4.08c-0.28,0-0.5-0.22-0.5-0.5s0.22-0.5,0.5-0.5h4.08c0.28,0,0.5,0.22,0.5,0.5
						S567.08,499.74,566.8,499.74z M558.64,499.74h-4.08c-0.28,0-0.5-0.22-0.5-0.5s0.22-0.5,0.5-0.5h4.08c0.28,0,0.5,0.22,0.5,0.5
						S558.91,499.74,558.64,499.74z M550.47,499.74h-4.08c-0.28,0-0.5-0.22-0.5-0.5s0.22-0.5,0.5-0.5h4.08c0.28,0,0.5,0.22,0.5,0.5
						S550.74,499.74,550.47,499.74z M542.3,499.74h-4.08c-0.28,0-0.5-0.22-0.5-0.5s0.22-0.5,0.5-0.5h4.08c0.28,0,0.5,0.22,0.5,0.5
						S542.57,499.74,542.3,499.74z M534.13,499.74h-4.08c-0.28,0-0.5-0.22-0.5-0.5s0.22-0.5,0.5-0.5h4.08c0.28,0,0.5,0.22,0.5,0.5
						S534.41,499.74,534.13,499.74z M525.96,499.74h-4.08c-0.28,0-0.5-0.22-0.5-0.5s0.22-0.5,0.5-0.5h4.08c0.28,0,0.5,0.22,0.5,0.5
						S526.24,499.74,525.96,499.74z"/>
				</g>
				<g>
					<path class="st11" d="M517.79,499.74h-2c-0.28,0-0.5-0.22-0.5-0.5v-2c0-0.28,0.22-0.5,0.5-0.5c0.28,0,0.5,0.22,0.5,0.5v1.5h1.5
						c0.28,0,0.5,0.22,0.5,0.5S518.07,499.74,517.79,499.74z"/>
				</g>
				<g>
					<path class="st11" d="M515.79,493.57c-0.28,0-0.5-0.22-0.5-0.5v-4.17c0-0.28,0.22-0.5,0.5-0.5c0.28,0,0.5,0.22,0.5,0.5v4.17
						C516.29,493.35,516.07,493.57,515.79,493.57z M515.79,485.23c-0.28,0-0.5-0.22-0.5-0.5v-4.17c0-0.28,0.22-0.5,0.5-0.5
						c0.28,0,0.5,0.22,0.5,0.5v4.17C516.29,485.01,516.07,485.23,515.79,485.23z M515.79,476.9c-0.28,0-0.5-0.22-0.5-0.5v-4.17
						c0-0.28,0.22-0.5,0.5-0.5c0.28,0,0.5,0.22,0.5,0.5v4.17C516.29,476.68,516.07,476.9,515.79,476.9z M515.79,468.56
						c-0.28,0-0.5-0.22-0.5-0.5v-4.17c0-0.28,0.22-0.5,0.5-0.5c0.28,0,0.5,0.22,0.5,0.5v4.17
						C516.29,468.34,516.07,468.56,515.79,468.56z M515.79,460.23c-0.28,0-0.5-0.22-0.5-0.5v-4.17c0-0.28,0.22-0.5,0.5-0.5
						c0.28,0,0.5,0.22,0.5,0.5v4.17C516.29,460,516.07,460.23,515.79,460.23z M515.79,451.89c-0.28,0-0.5-0.22-0.5-0.5v-4.17
						c0-0.28,0.22-0.5,0.5-0.5c0.28,0,0.5,0.22,0.5,0.5v4.17C516.29,451.67,516.07,451.89,515.79,451.89z M515.79,443.56
						c-0.28,0-0.5-0.22-0.5-0.5v-4.17c0-0.28,0.22-0.5,0.5-0.5c0.28,0,0.5,0.22,0.5,0.5v4.17
						C516.29,443.33,516.07,443.56,515.79,443.56z M515.79,435.22c-0.28,0-0.5-0.22-0.5-0.5v-4.17c0-0.28,0.22-0.5,0.5-0.5
						c0.28,0,0.5,0.22,0.5,0.5v4.17C516.29,435,516.07,435.22,515.79,435.22z"/>
				</g>
				<g>
					<path class="st11" d="M515.79,426.89c-0.28,0-0.5-0.22-0.5-0.5v-2c0-0.28,0.22-0.5,0.5-0.5h2c0.28,0,0.5,0.22,0.5,0.5
						c0,0.28-0.22,0.5-0.5,0.5h-1.5v1.5C516.29,426.66,516.07,426.89,515.79,426.89z"/>
				</g>
				<g>
					<path class="st11" d="M673,424.89h-4.09c-0.28,0-0.5-0.22-0.5-0.5c0-0.28,0.22-0.5,0.5-0.5H673c0.28,0,0.5,0.22,0.5,0.5
						C673.5,424.66,673.27,424.89,673,424.89z M664.83,424.89h-4.08c-0.28,0-0.5-0.22-0.5-0.5c0-0.28,0.22-0.5,0.5-0.5h4.08
						c0.28,0,0.5,0.22,0.5,0.5C665.33,424.66,665.1,424.89,664.83,424.89z M656.66,424.89h-4.08c-0.28,0-0.5-0.22-0.5-0.5
						c0-0.28,0.22-0.5,0.5-0.5h4.08c0.28,0,0.5,0.22,0.5,0.5C657.16,424.66,656.94,424.89,656.66,424.89z M648.49,424.89h-4.08
						c-0.28,0-0.5-0.22-0.5-0.5c0-0.28,0.22-0.5,0.5-0.5h4.08c0.28,0,0.5,0.22,0.5,0.5C648.99,424.66,648.77,424.89,648.49,424.89z
						 M640.32,424.89h-4.08c-0.28,0-0.5-0.22-0.5-0.5c0-0.28,0.22-0.5,0.5-0.5h4.08c0.28,0,0.5,0.22,0.5,0.5
						C640.82,424.66,640.6,424.89,640.32,424.89z M632.15,424.89h-4.08c-0.28,0-0.5-0.22-0.5-0.5c0-0.28,0.22-0.5,0.5-0.5h4.08
						c0.28,0,0.5,0.22,0.5,0.5C632.65,424.66,632.43,424.89,632.15,424.89z M623.99,424.89h-4.08c-0.28,0-0.5-0.22-0.5-0.5
						c0-0.28,0.22-0.5,0.5-0.5h4.08c0.28,0,0.5,0.22,0.5,0.5C624.49,424.66,624.26,424.89,623.99,424.89z M615.82,424.89h-4.08
						c-0.28,0-0.5-0.22-0.5-0.5c0-0.28,0.22-0.5,0.5-0.5h4.08c0.28,0,0.5,0.22,0.5,0.5C616.32,424.66,616.09,424.89,615.82,424.89z
						 M607.65,424.89h-4.08c-0.28,0-0.5-0.22-0.5-0.5c0-0.28,0.22-0.5,0.5-0.5h4.08c0.28,0,0.5,0.22,0.5,0.5
						C608.15,424.66,607.92,424.89,607.65,424.89z M599.48,424.89h-4.08c-0.28,0-0.5-0.22-0.5-0.5c0-0.28,0.22-0.5,0.5-0.5h4.08
						c0.28,0,0.5,0.22,0.5,0.5C599.98,424.66,599.76,424.89,599.48,424.89z M591.31,424.89h-4.08c-0.28,0-0.5-0.22-0.5-0.5
						c0-0.28,0.22-0.5,0.5-0.5h4.08c0.28,0,0.5,0.22,0.5,0.5C591.81,424.66,591.59,424.89,591.31,424.89z M583.14,424.89h-4.08
						c-0.28,0-0.5-0.22-0.5-0.5c0-0.28,0.22-0.5,0.5-0.5h4.08c0.28,0,0.5,0.22,0.5,0.5C583.64,424.66,583.42,424.89,583.14,424.89z
						 M574.97,424.89h-4.08c-0.28,0-0.5-0.22-0.5-0.5c0-0.28,0.22-0.5,0.5-0.5h4.08c0.28,0,0.5,0.22,0.5,0.5
						C575.47,424.66,575.25,424.89,574.97,424.89z M566.8,424.89h-4.08c-0.28,0-0.5-0.22-0.5-0.5c0-0.28,0.22-0.5,0.5-0.5h4.08
						c0.28,0,0.5,0.22,0.5,0.5C567.3,424.66,567.08,424.89,566.8,424.89z M558.64,424.89h-4.08c-0.28,0-0.5-0.22-0.5-0.5
						c0-0.28,0.22-0.5,0.5-0.5h4.08c0.28,0,0.5,0.22,0.5,0.5C559.14,424.66,558.91,424.89,558.64,424.89z M550.47,424.89h-4.08
						c-0.28,0-0.5-0.22-0.5-0.5c0-0.28,0.22-0.5,0.5-0.5h4.08c0.28,0,0.5,0.22,0.5,0.5C550.97,424.66,550.74,424.89,550.47,424.89z
						 M542.3,424.89h-4.08c-0.28,0-0.5-0.22-0.5-0.5c0-0.28,0.22-0.5,0.5-0.5h4.08c0.28,0,0.5,0.22,0.5,0.5
						C542.8,424.66,542.57,424.89,542.3,424.89z M534.13,424.89h-4.08c-0.28,0-0.5-0.22-0.5-0.5c0-0.28,0.22-0.5,0.5-0.5h4.08
						c0.28,0,0.5,0.22,0.5,0.5C534.63,424.66,534.41,424.89,534.13,424.89z M525.96,424.89h-4.08c-0.28,0-0.5-0.22-0.5-0.5
						c0-0.28,0.22-0.5,0.5-0.5h4.08c0.28,0,0.5,0.22,0.5,0.5C526.46,424.66,526.24,424.89,525.96,424.89z"/>
				</g>
				<g>
					<path class="st11" d="M679.08,426.89c-0.28,0-0.5-0.22-0.5-0.5v-1.5h-1.5c-0.28,0-0.5-0.22-0.5-0.5c0-0.28,0.22-0.5,0.5-0.5h2
						c0.28,0,0.5,0.22,0.5,0.5v2C679.58,426.66,679.36,426.89,679.08,426.89z"/>
				</g>
				<g>
					<path class="st11" d="M679.08,493.57c-0.28,0-0.5-0.22-0.5-0.5v-4.17c0-0.28,0.22-0.5,0.5-0.5c0.28,0,0.5,0.22,0.5,0.5v4.17
						C679.58,493.35,679.36,493.57,679.08,493.57z M679.08,485.23c-0.28,0-0.5-0.22-0.5-0.5v-4.17c0-0.28,0.22-0.5,0.5-0.5
						c0.28,0,0.5,0.22,0.5,0.5v4.17C679.58,485.01,679.36,485.23,679.08,485.23z M679.08,476.9c-0.28,0-0.5-0.22-0.5-0.5v-4.17
						c0-0.28,0.22-0.5,0.5-0.5c0.28,0,0.5,0.22,0.5,0.5v4.17C679.58,476.68,679.36,476.9,679.08,476.9z M679.08,468.56
						c-0.28,0-0.5-0.22-0.5-0.5v-4.17c0-0.28,0.22-0.5,0.5-0.5c0.28,0,0.5,0.22,0.5,0.5v4.17
						C679.58,468.34,679.36,468.56,679.08,468.56z M679.08,460.23c-0.28,0-0.5-0.22-0.5-0.5v-4.17c0-0.28,0.22-0.5,0.5-0.5
						c0.28,0,0.5,0.22,0.5,0.5v4.17C679.58,460,679.36,460.23,679.08,460.23z M679.08,451.89c-0.28,0-0.5-0.22-0.5-0.5v-4.17
						c0-0.28,0.22-0.5,0.5-0.5c0.28,0,0.5,0.22,0.5,0.5v4.17C679.58,451.67,679.36,451.89,679.08,451.89z M679.08,443.56
						c-0.28,0-0.5-0.22-0.5-0.5v-4.17c0-0.28,0.22-0.5,0.5-0.5c0.28,0,0.5,0.22,0.5,0.5v4.17
						C679.58,443.33,679.36,443.56,679.08,443.56z M679.08,435.22c-0.28,0-0.5-0.22-0.5-0.5v-4.17c0-0.28,0.22-0.5,0.5-0.5
						c0.28,0,0.5,0.22,0.5,0.5v4.17C679.58,435,679.36,435.22,679.08,435.22z"/>
				</g>
			</g>
			<rect x="513.47" y="421.83" class="st11" width="4.69" height="4.69"/>
			<rect x="513.47" y="496.38" class="st11" width="4.69" height="4.69"/>
			<rect x="675.65" y="496.38" class="st11" width="4.69" height="4.69"/>
			<rect x="676.29" y="421.83" class="st11" width="4.69" height="4.69"/>
		</g>
	</g>
	<g class="st12">
		<g class="st13">
			<text transform="matrix(1 0 0 1 188.0706 463.1024)" class="st11 st32 st35">NODE</text>
		</g>
		<text transform="matrix(1 0 0 1 166.9168 491.1659)" class="st20 st14 st35 st19">SCHOOL</text>
	</g>
</g>
</svg>
